<svg width="533" height="564" viewBox="0 0 533 564" fill="none" xmlns="http://www.w3.org/2000/svg">
<g clip-path="url(#clip0_2036_62837)">
<path d="M231.465 86.4478C290.877 98.1536 321.198 165.439 416.88 225.319C512.563 285.199 491.489 518.985 340.39 480.856C196.24 444.478 189.566 447.351 95.1604 450.71C-23.0089 454.909 43.4585 49.4127 231.465 86.4478Z" fill="url(#paint0_linear_2036_62837)"/>
<path d="M392.592 185.086C364.71 162.898 341.502 124.176 354.694 86.8565C367.886 49.5367 395.161 119.005 417.1 142.129C448.842 175.61 450.949 231.523 392.592 185.086Z" fill="url(#paint1_linear_2036_62837)"/>
<path d="M460.055 485.068H47.7793V487.939H460.055V485.068Z" fill="#50B19E" fill-opacity="0.3"/>
<mask id="mask0_2036_62837" style="mask-type:luminance" maskUnits="userSpaceOnUse" x="36" y="84" width="439" height="402">
<path d="M231.465 86.4478C290.877 98.1536 321.198 165.439 416.88 225.319C512.563 285.199 491.489 518.985 340.39 480.856C196.24 444.478 189.566 447.351 95.1604 450.71C-23.0089 454.909 43.4585 49.4127 231.465 86.4478Z" fill="white"/>
</mask>
<g mask="url(#mask0_2036_62837)">
<path d="M131.835 207.741V192.31H157.429V118.559H164.485V192.31H192.056V207.741H206.822V516.971H100.324V207.741H131.835Z" fill="#50B19E" fill-opacity="0.3"/>
<path d="M100.323 485.91H115.092L115.092 207.745H100.323L100.323 485.91Z" fill="#50B19E" fill-opacity="0.1"/>
<path d="M153.574 516.971H260.068L260.068 281.402H153.574L153.574 516.971Z" fill="#50B19E" fill-opacity="0.3"/>
<path d="M153.573 516.971H168.342L168.342 281.402H153.573L153.573 516.971Z" fill="#50B19E" fill-opacity="0.1"/>
<path d="M229.925 297.781H245.207V291.439H229.925V297.781Z" fill="#50B19E" fill-opacity="0.1"/>
<path d="M204.197 297.781H219.479V291.439H204.197V297.781Z" fill="#50B19E" fill-opacity="0.1"/>
<path d="M229.925 320.875H245.207V314.533H229.925V320.875Z" fill="#50B19E" fill-opacity="0.1"/>
<path d="M204.197 320.875H219.479V314.533H204.197V320.875Z" fill="#50B19E" fill-opacity="0.1"/>
<path d="M178.468 320.875H193.75V314.533H178.468V320.875Z" fill="#50B19E" fill-opacity="0.1"/>
<path d="M229.925 343.967H245.207V337.625H229.925V343.967Z" fill="#50B19E" fill-opacity="0.1"/>
<path d="M178.468 343.967H193.75V337.625H178.468V343.967Z" fill="#50B19E" fill-opacity="0.1"/>
<path d="M204.197 355.516H219.479V349.173H204.197V355.516Z" fill="#50B19E" fill-opacity="0.1"/>
<path d="M229.925 367.062H245.207V360.72H229.925V367.062Z" fill="#50B19E" fill-opacity="0.1"/>
<path d="M204.197 378.607H219.479V372.265H204.197V378.607Z" fill="#50B19E" fill-opacity="0.1"/>
<path d="M229.925 390.156H245.207V383.814H229.925V390.156Z" fill="#50B19E" fill-opacity="0.1"/>
<path d="M178.468 390.156H193.75V383.814H178.468V390.156Z" fill="#50B19E" fill-opacity="0.1"/>
<path d="M229.925 411.496H245.207V405.154H229.925V411.496Z" fill="#50B19E" fill-opacity="0.1"/>
<path d="M204.197 411.496H219.479V405.154H204.197V411.496Z" fill="#50B19E" fill-opacity="0.1"/>
<path d="M229.925 434.588H245.207V428.246H229.925V434.588Z" fill="#50B19E" fill-opacity="0.1"/>
<path d="M204.197 434.588H219.479V428.246H204.197V434.588Z" fill="#50B19E" fill-opacity="0.1"/>
<path d="M178.468 434.588H193.75V428.246H178.468V434.588Z" fill="#50B19E" fill-opacity="0.1"/>
<path d="M229.925 457.684H245.207V451.341H229.925V457.684Z" fill="#50B19E" fill-opacity="0.1"/>
<path d="M178.468 457.684H193.75V451.341H178.468V457.684Z" fill="#50B19E" fill-opacity="0.1"/>
<path d="M204.197 469.227H219.479V462.884H204.197V469.227Z" fill="#50B19E" fill-opacity="0.1"/>
<path d="M178.468 469.227H193.75V462.884H178.468V469.227Z" fill="#50B19E" fill-opacity="0.1"/>
<path d="M229.925 480.777H245.207V474.435H229.925V480.777Z" fill="#50B19E" fill-opacity="0.1"/>
<path d="M408.384 516.971H514.879V281.402H408.384V516.971Z" fill="#50B19E" fill-opacity="0.3"/>
<path d="M408.384 516.971H423.152L423.152 281.402H408.384V516.971Z" fill="#50B19E" fill-opacity="0.1"/>
<path d="M257.106 516.975H399.992L399.992 169.359H257.106V516.975Z" fill="#50B19E" fill-opacity="0.3"/>
<path d="M257.102 516.975H271.867L271.867 169.359H257.102L257.102 516.975Z" fill="#50B19E" fill-opacity="0.1"/>
<path d="M362.623 195.27H384.938V186.009H362.623V195.27Z" fill="#50B19E" fill-opacity="0.1"/>
<path d="M325.053 195.27H347.367V186.009H325.053V195.27Z" fill="#50B19E" fill-opacity="0.1"/>
<path d="M362.623 228.994H384.938V219.73H362.623V228.994Z" fill="#50B19E" fill-opacity="0.1"/>
<path d="M325.053 228.994H347.367V219.73H325.053V228.994Z" fill="#50B19E" fill-opacity="0.1"/>
<path d="M287.482 228.994H309.797V219.73H287.482V228.994Z" fill="#50B19E" fill-opacity="0.1"/>
<path d="M362.623 262.711H384.938V253.45H362.623V262.711Z" fill="#50B19E" fill-opacity="0.1"/>
<path d="M287.482 262.711H309.797V253.45H287.482V262.711Z" fill="#50B19E" fill-opacity="0.1"/>
<path d="M325.053 279.572H347.367V270.311H325.053V279.572Z" fill="#50B19E" fill-opacity="0.1"/>
<path d="M362.623 296.436H384.938V287.172H362.623V296.436Z" fill="#50B19E" fill-opacity="0.1"/>
<path d="M325.053 313.297H347.367V304.036H325.053V313.297Z" fill="#50B19E" fill-opacity="0.1"/>
<path d="M362.623 330.158H384.938V320.897H362.623V330.158Z" fill="#50B19E" fill-opacity="0.1"/>
<path d="M287.482 330.158H309.797V320.897H287.482V330.158Z" fill="#50B19E" fill-opacity="0.1"/>
<path d="M362.623 361.322H384.938V352.061H362.623V361.322Z" fill="#50B19E" fill-opacity="0.1"/>
<path d="M325.053 361.322H347.367V352.061H325.053V361.322Z" fill="#50B19E" fill-opacity="0.1"/>
<path d="M362.623 395.043H384.938V385.782H362.623V395.043Z" fill="#50B19E" fill-opacity="0.1"/>
<path d="M325.053 395.043H347.367V385.782H325.053V395.043Z" fill="#50B19E" fill-opacity="0.1"/>
<path d="M287.482 395.043H309.797V385.782H287.482V395.043Z" fill="#50B19E" fill-opacity="0.1"/>
<path d="M362.623 428.768H384.938V419.507H362.623V428.768Z" fill="#50B19E" fill-opacity="0.1"/>
<path d="M287.482 428.768H309.797V419.507H287.482V428.768Z" fill="#50B19E" fill-opacity="0.1"/>
<path d="M325.053 445.629H347.367V436.368H325.053V445.629Z" fill="#50B19E" fill-opacity="0.1"/>
<path d="M287.482 445.629H309.797V436.368H287.482V445.629Z" fill="#50B19E" fill-opacity="0.1"/>
<path d="M362.623 462.488H384.938V453.227H362.623V462.488Z" fill="#50B19E" fill-opacity="0.1"/>
<path d="M325.053 479.354H347.367V470.093H325.053V479.354Z" fill="#50B19E" fill-opacity="0.1"/>
<path d="M29.1645 516.971H119.359L119.359 297.544H29.1645L29.1645 516.971Z" fill="#50B19E" fill-opacity="0.3"/>
<path d="M29.1682 516.971H38.4883L38.4883 297.544H29.1682L29.1682 516.971Z" fill="#50B19E" fill-opacity="0.1"/>
<path d="M95.7735 313.9H109.859V308.055H95.7735V313.9Z" fill="#50B19E" fill-opacity="0.1"/>
<path d="M72.0539 313.9H86.1426V308.055H72.0539V313.9Z" fill="#50B19E" fill-opacity="0.1"/>
<path d="M95.7735 335.189H109.859V329.344H95.7735V335.189Z" fill="#50B19E" fill-opacity="0.1"/>
<path d="M72.0539 335.189H86.1426V329.344H72.0539V335.189Z" fill="#50B19E" fill-opacity="0.1"/>
<path d="M48.3427 335.189H62.4258V329.344H48.3427V335.189Z" fill="#50B19E" fill-opacity="0.1"/>
<path d="M95.7735 356.477H109.859V350.631H95.7735V356.477Z" fill="#50B19E" fill-opacity="0.1"/>
<path d="M48.3427 356.477H62.4258V350.631H48.3427V356.477Z" fill="#50B19E" fill-opacity="0.1"/>
<path d="M72.0539 367.119H86.1426V361.273H72.0539V367.119Z" fill="#50B19E" fill-opacity="0.1"/>
<path d="M95.7735 377.762H109.859V371.916H95.7735V377.762Z" fill="#50B19E" fill-opacity="0.1"/>
<path d="M72.0539 388.408H86.1426V382.562H72.0539V388.408Z" fill="#50B19E" fill-opacity="0.1"/>
<path d="M95.7735 399.051H109.859V393.205H95.7735V399.051Z" fill="#50B19E" fill-opacity="0.1"/>
<path d="M48.3427 399.051H62.4258V393.205H48.3427V399.051Z" fill="#50B19E" fill-opacity="0.1"/>
<path d="M95.7735 418.723H109.859V412.877H95.7735V418.723Z" fill="#50B19E" fill-opacity="0.1"/>
<path d="M72.0539 418.723H86.1426V412.877H72.0539V418.723Z" fill="#50B19E" fill-opacity="0.1"/>
<path d="M95.7735 440.008H109.859V434.162H95.7735V440.008Z" fill="#50B19E" fill-opacity="0.1"/>
<path d="M72.0539 440.008H86.1426V434.162H72.0539V440.008Z" fill="#50B19E" fill-opacity="0.1"/>
<path d="M48.3427 440.008H62.4258V434.162H48.3427V440.008Z" fill="#50B19E" fill-opacity="0.1"/>
<path d="M95.7735 461.297H109.859V455.451H95.7735V461.297Z" fill="#50B19E" fill-opacity="0.1"/>
<path d="M48.3427 461.297H62.4258V455.451H48.3427V461.297Z" fill="#50B19E" fill-opacity="0.1"/>
<path d="M72.0539 471.936H86.1426V466.09H72.0539V471.936Z" fill="#50B19E" fill-opacity="0.1"/>
<path d="M48.3427 471.936H62.4258V466.09H48.3427V471.936Z" fill="#50B19E" fill-opacity="0.1"/>
<path d="M95.7735 482.582H109.859V476.733H95.7735V482.582Z" fill="#50B19E" fill-opacity="0.1"/>
<path opacity="0.35" d="M350.901 62.8633H-31.3418V498.689H350.901V62.8633Z" fill="white"/>
<path opacity="0.5" d="M104.246 490.652H74.5801L233.611 67.6855H263.278L104.246 490.652Z" fill="white"/>
<path opacity="0.5" d="M51.8625 490.652H37.0293L196.06 67.6855H210.894L51.8625 490.652Z" fill="white"/>
<path opacity="0.5" d="M228.979 490.653H214.143L350.49 113.098V143.517L228.979 490.653Z" fill="white"/>
<path opacity="0.35" d="M739.15 54.0742H356.904V489.9H739.15V54.0742Z" fill="white"/>
<path opacity="0.5" d="M420.122 490.652H390.455L549.486 67.6855H579.155L420.122 490.652Z" fill="white"/>
<path opacity="0.5" d="M367.736 490.652H352.902L511.933 67.6855H526.767L367.736 490.652Z" fill="white"/>
<path d="M755.089 141.311V136.325H741.355V57.7148H-31.5332V67.6807H-23.2057V71.2057H223.299V136.325H-31.5332V141.311H223.299V269.311H-31.5332V274.299H223.299V402.285H-31.5332V407.271H223.299V490.653H-23.124V493.537H-31.5304V505.063H741.355V504.135V407.257H755.089V402.271H741.355V274.285H755.089V269.311H741.355V141.311H755.089ZM359.11 274.285H478.165V402.271H359.11V274.285ZM359.11 269.297V141.311H478.165V269.311L359.11 269.297ZM359.11 136.325V71.2057H478.165V136.325H359.11ZM359.11 407.257H478.165V490.653H359.161V493.537H359.119L359.11 407.257ZM486.526 490.653V407.257H605.578V490.653H486.526ZM486.526 402.271V274.285H605.578V402.271H486.526ZM486.526 269.297V141.311H605.578V269.311L486.526 269.297ZM486.526 136.325V71.2057H605.578V136.325H486.526ZM231.66 71.2057H350.715V136.325H231.66V71.2057ZM231.66 141.311H350.715V269.311H231.66V141.311ZM231.66 274.285H350.715V402.271H231.66V274.285ZM231.66 407.257H350.715V493.549H350.67V490.653H231.666L231.66 407.257Z" fill="url(#paint2_linear_2036_62837)"/>
</g>
<path d="M126.232 246.751V224.755H81.4648V206.396L128.917 136.926H146.531V206.32H160.106V224.755H146.531V246.751H126.232ZM126.232 206.312V168.938L101.089 206.32L126.232 206.312ZM296.202 246.751V224.755H251.435V206.396L298.89 136.926H316.498V206.32H330.079V224.755H316.498V246.751H296.202ZM296.202 206.312V168.938L271.059 206.32L296.202 206.312Z" fill="#50B19E"/>
<path d="M351.655 380.207L323.759 370.619C321.001 369.668 317.646 371.095 316.283 373.8L281.719 443.933L284.073 444.742L318.477 374.928C319.276 373.346 321.317 372.477 322.933 373.033L350.828 382.621C352.444 383.185 353.522 385.116 353.175 386.851L337.355 463.055L339.706 463.865L355.597 387.305C356.167 384.344 354.407 381.157 351.655 380.207Z" fill="url(#paint3_linear_2036_62837)"/>
<path d="M354.977 381.351L328.982 372.522C326.227 371.574 319.301 371.65 317.919 374.341L283.975 444.714L287.398 445.893L321.763 376.069C322.572 374.485 327.121 374.479 328.748 375.037L353.564 383.579C355.185 384.143 354.692 385.835 354.351 387.581L338.277 463.382L343.071 465.026L358.975 388.455C359.511 385.494 357.732 382.299 354.977 381.351Z" fill="#3F8E7F"/>
<path d="M410.042 400.104L378.195 389.16C375.44 388.213 371.049 389.366 369.634 392.155L335.689 462.508L339.116 463.684L373.477 393.889C374.307 392.251 376.379 391.334 377.989 391.893L408.507 402.389C410.129 402.953 408.99 403.782 408.637 405.587L396.833 483.54L401.181 485.037L413.939 407.397C414.539 404.32 412.8 401.055 410.042 400.104Z" fill="#3F8E7F"/>
<path d="M406.718 398.96L375.534 388.244C372.779 387.296 369.39 388.808 367.98 391.591L333.438 461.725L335.792 462.534L370.16 392.739C370.986 391.098 373.053 390.181 374.672 390.74L405.855 401.456C407.499 402.02 408.644 404.056 408.362 405.897L395.475 483.066L397.872 483.893L410.815 406.221C411.286 403.156 409.465 399.902 406.718 398.96Z" fill="url(#paint4_linear_2036_62837)"/>
<path d="M412.752 398.228L415.896 399.308C419.435 395.439 428.868 379.286 435.05 366.642C435.789 365.124 436.375 363.926 436.705 363.305L437.309 362.177L435.146 360.99C428.237 374.019 413.395 397.839 412.752 398.228Z" fill="#3F8E7F"/>
<path d="M411.029 397.637L413.5 398.483C417.064 394.922 426.658 378.642 433.096 365.489C433.821 364.014 434.39 362.847 434.717 362.232L432.557 361.045C424.794 378.819 411.813 397.087 411.029 397.637Z" fill="url(#paint5_linear_2036_62837)"/>
<path d="M383.711 348.145C381.881 351.811 372.301 368.771 369.29 373.923C366.839 378.114 365.195 380.33 364.129 381.503L366.481 382.313C370.104 378.133 379.614 361.884 385.905 349.268C386.562 347.948 387.986 345.215 387.986 345.215L385.826 344.025C385.826 344.025 384.379 346.809 383.711 348.145Z" fill="#425A92"/>
<path d="M361.908 380.74L364.319 381.569C367.878 377.833 377.407 361.578 383.738 348.615C384.477 347.095 385.063 345.894 385.396 345.273L383.236 344.086C371.73 369.401 362.816 379.959 361.908 380.74Z" fill="#3F8E7F"/>
<path d="M462.7 316.894L416.043 300.846C411.629 299.328 406.322 301.288 404.249 305.203L383.52 345.565C383.52 345.565 397.62 353.639 416.607 360.164C435.594 366.69 443.732 366.275 443.732 366.275L466.966 326.773C469.036 322.859 467.116 318.414 462.7 316.894Z" fill="#425A92"/>
<path d="M458.727 315.53L412.07 299.484C407.657 297.964 402.35 299.924 400.28 303.838L377.049 343.34C377.049 343.34 393.659 352.274 412.637 358.803C431.616 365.331 439.763 364.911 439.763 364.911L462.994 325.408C465.064 321.48 463.143 317.047 458.727 315.53Z" fill="url(#paint6_linear_2036_62837)"/>
<path d="M362.525 380.137C362.475 380.264 362.412 380.376 362.367 380.506C361.332 383.521 362.195 386.552 364.299 387.274L413.085 404.056C415.186 404.778 417.732 402.928 418.77 399.905C418.812 399.778 418.835 399.651 418.872 399.521L362.525 380.137Z" fill="#425A92"/>
<path d="M314.756 363.703C314.706 363.827 314.641 363.94 314.596 364.067C313.558 367.081 314.66 370.195 317.052 371.018L374.402 390.741C376.796 391.565 379.577 389.788 380.606 386.774C380.648 386.647 380.668 386.517 380.702 386.387L314.756 363.703Z" fill="url(#paint7_linear_2036_62837)"/>
<path d="M394.915 287.831C387.076 284.137 365.629 260.353 360.993 255.725C355.407 250.15 359.55 241.284 366.693 242.387C372.781 243.326 403.697 269.411 406.601 273.288C411.849 280.288 404.726 292.45 394.915 287.831Z" fill="#FED2A7"/>
<path d="M370.582 270.105C378.616 277.869 395.006 288.633 398.979 290.505C408.79 295.124 415.899 282.962 410.663 275.962C409.027 273.78 396.261 261.688 384.736 253.309C380.452 253.216 370.76 261.778 370.582 270.105Z" fill="#50B19E"/>
<path d="M430.983 263.71C430.983 263.71 424.215 275.895 429.945 278.016C435.675 280.137 445.881 285.297 447.804 291.679C449.727 298.06 438.645 344.528 422.607 375.571C422.607 375.571 379.554 374.263 367.268 348.028C367.268 348.028 383.604 280.999 392.476 274.164C399.878 268.462 411.37 273.095 411.37 273.095C411.37 273.095 415.622 271.457 416.62 264.849C419.051 248.725 430.983 263.71 430.983 263.71Z" fill="#50B19E"/>
<path d="M430.126 265.41C430.614 264.373 430.972 263.718 430.972 263.718C430.972 263.718 421.384 251.666 417.639 260.808L430.126 265.41Z" fill="url(#paint8_linear_2036_62837)"/>
<path d="M447.816 291.679C447.363 290.296 446.64 289.016 445.689 287.914L419.604 328.607L367.279 348.028C379.566 374.254 422.619 375.571 422.619 375.571C438.645 344.528 449.728 298.075 447.816 291.679Z" fill="#3F8E7F"/>
<path d="M434.44 279.927C427.108 286.464 417.585 288.182 411.316 283.492C407.712 280.802 405.834 276.487 405.676 271.622C407.619 271.913 409.526 272.406 411.367 273.095C411.367 273.095 415.616 271.456 416.615 264.846C419.051 248.713 430.997 263.718 430.997 263.718C430.997 263.718 424.212 275.898 429.956 278.021C431.259 278.5 432.807 279.143 434.44 279.927Z" fill="#FED2A7"/>
<path d="M434.44 279.927C427.108 286.464 417.585 288.182 411.316 283.492C407.712 280.802 405.834 276.487 405.676 271.622C407.619 271.913 409.526 272.406 411.367 273.095C411.367 273.095 415.616 271.456 416.615 264.846C419.051 248.713 430.997 263.718 430.997 263.718C430.997 263.718 424.212 275.898 429.956 278.021C431.259 278.5 432.807 279.143 434.44 279.927Z" fill="#FED2A7"/>
<path d="M429.946 278.015C424.202 275.892 430.987 263.712 430.987 263.712C430.987 263.712 430.369 262.939 429.394 261.936L427.177 267.937C426.454 269.893 425.353 271.689 423.936 273.22C422.52 274.751 420.815 275.988 418.92 276.861C417.025 277.733 414.977 278.224 412.893 278.305C410.808 278.386 408.728 278.056 406.771 277.333C407.66 279.78 409.236 281.919 411.312 283.492C417.586 288.181 427.104 286.464 434.436 279.927C432.809 279.143 431.26 278.5 429.946 278.015Z" fill="#FBBB8F"/>
<path d="M416.385 247.354L416.566 246.86L411.856 245.123L411.676 245.614L416.385 247.354Z" fill="#3F8E7F"/>
<path d="M417.843 237.184L411.196 255.175C409.222 260.48 412.183 266.455 417.772 268.522C423.364 270.589 429.487 267.958 431.446 262.657L431.61 262.217C431.61 262.217 437.555 263.948 439.729 258.063C441.903 252.178 437.151 253.15 437.151 253.15L440.025 245.379L417.843 237.184Z" fill="#FED2A7"/>
<path d="M437.151 253.152L440.024 245.38L432.148 242.473C432.128 242.529 432.114 242.588 432.095 242.647L424.571 263.008C423.257 266.567 418.86 268.225 415.451 266.826C414.435 266.413 413.537 265.756 412.834 264.914C414.11 266.555 415.821 267.806 417.772 268.524C423.364 270.591 429.486 267.96 431.446 262.658L431.61 262.218C431.61 262.218 437.554 263.95 439.728 258.064C441.903 252.179 437.151 253.152 437.151 253.152Z" fill="#FBBB8F"/>
<path d="M436.94 253.292C436.94 253.292 433.297 257.943 434.532 251.118C435.767 244.294 433.686 243.848 426.354 241.674C419.022 239.5 409.93 233.11 417.048 225.713C424.05 218.443 437.002 230.507 437.002 230.507C437.002 230.507 449.464 231.257 448.076 240.806C446.689 250.354 436.94 253.292 436.94 253.292Z" fill="#425A92"/>
<path d="M448.098 290.773C453.242 297.746 460.893 329.567 462.762 335.839C465.018 343.397 458.845 349.423 453.081 345.06C448.175 341.344 430.163 301.881 429.447 297.089C428.178 288.438 441.666 282.047 448.098 290.773Z" fill="#FED2A7"/>
<path d="M460.486 318.211C456.707 306.218 451.335 294.103 448.391 290.11C441.389 280.623 426.998 288.446 428.402 297.851C428.755 300.202 433.543 312.233 438.701 323.552C448.599 324.514 459.197 319.621 460.486 318.211Z" fill="#3F8E7F"/>
<path d="M268.988 329.808L269.493 321.683C260.254 322.275 252.669 320.366 258.464 308.66C261.134 303.266 255.319 298.723 255.319 298.723L241.468 326.711C241.468 326.711 241.219 330.056 249.761 329.249C259.039 328.403 268.988 329.808 268.988 329.808Z" fill="#FED2A7"/>
<path d="M252.418 319.723C254.922 318.773 257.059 322.261 258.43 319.847C256.03 317.995 255.531 314.582 258.464 308.66C261.134 303.266 255.319 298.723 255.319 298.723L241.468 326.711C241.468 326.711 241.233 329.853 248.986 329.325C250.441 326.392 248.642 321.161 252.418 319.723Z" fill="#3F8E7F"/>
<path d="M252.734 425.296C262.576 427.349 269.329 416.306 272.908 411.004L280.618 417.453C280.618 417.453 271.896 425.631 269.964 432.563C268.032 439.494 266.32 438.203 266.32 438.203L238.18 428.525C238.18 428.525 242.892 423.24 252.734 425.296Z" fill="#FED2A7"/>
<path d="M252.734 425.295C255.703 425.913 259.256 425.14 261.36 423.764C262.77 422.766 266.865 425.811 266.749 428.64C266.749 428.64 268.159 430.614 270.432 431.178C270.263 431.649 270.091 432.111 269.964 432.562C268.032 439.505 266.32 438.202 266.32 438.202L238.18 428.524C238.18 428.524 242.892 423.24 252.734 425.295Z" fill="#3F8E7F"/>
<path d="M454.583 333.359C465.319 331.54 499.162 336.1 505.01 332.834C510.859 329.568 521.818 327.546 525.822 330.877C529.911 334.281 527.159 337.383 522.768 339.901C519.982 341.505 516.719 342.859 509.314 341.991C501.908 341.122 470.446 347.949 459.51 348.217C448.661 348.491 447.313 334.588 454.583 333.359ZM372.854 252.842C374.628 242.098 369.935 211.87 373.175 206.007C376.416 200.145 378.401 192.773 375.054 188.783C371.633 184.711 366.03 184.68 366.03 191.885C366.03 195.1 363.097 197.942 363.993 205.347C364.89 212.753 358.187 237.047 357.962 247.983C357.744 258.815 371.653 260.109 372.854 252.842Z" fill="#FED2A7"/>
<path d="M425.092 256.468C424.405 256.21 423.792 255.785 423.309 255.232C422.826 254.679 422.488 254.014 422.326 253.298C421.993 251.959 422.065 250.552 422.532 249.254C423.293 247.198 425.332 246.685 428.31 247.765C431.288 248.845 432.492 250.585 431.731 252.652C430.919 254.852 428.288 257.568 425.197 256.504L425.092 256.468ZM423.023 249.437C422.591 250.634 422.525 251.931 422.831 253.165C422.972 253.802 423.27 254.392 423.697 254.885C424.124 255.377 424.666 255.755 425.276 255.985L425.363 256.016C428.13 256.967 430.498 254.485 431.24 252.48C432.064 250.25 430.002 248.955 428.138 248.264L427.893 248.177C426.048 247.537 423.812 247.314 423.023 249.437ZM414.111 252.41C410.973 251.251 410.727 247.421 411.548 245.196C412.307 243.14 414.368 242.619 417.326 243.707C420.284 244.796 421.505 246.527 420.747 248.594C419.932 250.794 417.304 253.51 414.21 252.446L414.111 252.41ZM412.039 245.377C411.291 247.404 411.475 250.884 414.295 251.919C417.115 252.954 419.515 250.439 420.262 248.414C421.085 246.183 419.024 244.889 417.16 244.198L416.914 244.11C415.065 243.479 412.828 243.245 412.039 245.377Z" fill="#3F8E7F"/>
<path d="M422.881 249.155L423.061 248.664L420.755 247.812L420.574 248.303L422.881 249.155Z" fill="#3F8E7F"/>
<path d="M435.888 254.559L436.068 254.068L431.359 252.328L431.176 252.819L435.888 254.559Z" fill="#3F8E7F"/>
<path d="M367.266 362.302C348.978 348.109 326.404 335.605 314.859 338.332C312.823 338.808 311.126 339.764 309.859 341.27C309.196 342.068 308.615 342.93 308.125 343.845L308.094 343.825C308.094 343.825 276.691 398.685 266.426 414.934C266.426 414.934 273.792 422.638 280.526 423.854C280.526 423.854 314.019 390.38 323.068 370.59C323.708 370.97 324.32 371.314 324.87 371.599L325.197 371.765C325.254 371.797 325.31 371.819 325.364 371.85C325.417 371.881 325.51 371.923 325.587 371.954C325.869 372.095 326.131 372.211 326.376 372.315C327.434 372.761 328.683 373.235 330.082 373.725C330.285 373.799 330.488 373.866 330.696 373.934C334.532 375.226 339.416 376.602 344.661 377.961C345.047 378.065 345.431 378.161 345.817 378.26C346.627 378.469 347.442 378.677 348.259 378.878C348.744 379.002 349.227 379.123 349.714 379.238C352.489 379.929 355.304 380.598 358.062 381.246C358.786 381.413 359.508 381.576 360.216 381.743L360.738 381.867C361 381.92 361.265 381.98 361.522 382.042C364.847 382.8 368.039 383.511 370.927 384.142C378.786 385.834 384.412 386.962 384.412 386.962C384.412 386.962 398.529 391.359 405.677 385.834C412.18 380.826 381.434 368.604 367.266 362.302Z" fill="#425A92"/>
<path d="M320.581 369.015C320.88 369.218 321.176 369.412 321.469 369.604C321.991 369.94 322.49 370.253 322.975 370.54C323.655 370.944 324.292 371.299 324.868 371.598L325.195 371.764C325.251 371.795 325.307 371.818 325.361 371.849C325.415 371.88 325.508 371.922 325.584 371.953C325.866 372.094 326.128 372.21 326.373 372.314C327.431 372.763 328.68 373.233 330.079 373.724C330.282 373.797 330.485 373.865 330.694 373.933C334.529 375.224 339.413 376.601 344.658 377.96C345.045 378.064 345.428 378.16 345.815 378.259C346.624 378.467 347.439 378.676 348.257 378.876C348.742 379 349.224 379.122 349.712 379.237C352.484 379.928 355.301 380.596 358.059 381.245C358.784 381.411 359.506 381.575 360.213 381.741L360.735 381.865C360.997 381.925 361.262 381.978 361.519 382.04C364.844 382.799 368.036 383.51 370.924 384.141C378.783 385.833 384.409 386.961 384.409 386.961C384.409 386.961 398.526 391.358 405.675 385.833C412.18 380.816 381.423 368.595 367.266 362.292C348.979 348.099 326.404 335.595 314.859 338.322C342.634 341.946 351.649 359.523 346.771 366.699C339.162 377.909 321.819 368.696 320.581 369.015Z" fill="#425A92"/>
<path d="M344.649 300.696C343.478 300.493 342.274 300.6 341.158 301.006C333.603 303.172 273.582 320.275 263.396 319.9C263.396 319.9 261.422 330.128 262.866 339.758C262.866 339.758 324.035 333.608 337.878 331.609C348.972 343.884 366.154 369.755 380.883 381.241C396.994 393.798 416.813 390.366 423.022 375.282C423.028 375.279 377.567 305.729 344.649 300.696Z" fill="#5672B3"/>
<path d="M425.957 357.883H419.641V485.025H425.957V357.883Z" fill="#425A92"/>
<path d="M243.254 485.025H248.874V416.801V357.883H243.254V485.025Z" fill="#425A92"/>
<path d="M433.831 354.607H356.523V357.881H433.831V354.607Z" fill="#3F8E7F"/>
<path d="M356.525 354.607H125.133V357.881H356.525V354.607Z" fill="#425A92"/>
<path d="M346.541 357.883H339.443V485.025H346.541V357.883Z" fill="#425A92"/>
<path d="M137.59 485.025H143.915V416.801V357.883H137.59V485.025Z" fill="#425A92"/>
<path d="M450.772 348.775H373.465V354.607H450.772V348.775Z" fill="#425A92"/>
<path d="M373.894 348.775H116.146V354.607H373.894V348.775Z" fill="url(#paint9_linear_2036_62837)"/>
<path d="M289.36 330.323C289.373 330.374 289.395 330.422 289.426 330.463C289.457 330.505 289.497 330.54 289.542 330.566C289.587 330.593 289.636 330.61 289.688 330.616C289.74 330.623 289.792 330.619 289.842 330.605L354.57 312.58C354.668 312.553 354.76 312.507 354.841 312.444C354.921 312.381 354.989 312.303 355.039 312.214C355.089 312.126 355.122 312.028 355.134 311.926C355.146 311.825 355.139 311.722 355.111 311.624L354.609 309.816L288.754 328.146L289.36 330.323Z" fill="#50B19E"/>
<path d="M345.94 311.396L346.152 312.157L348.461 311.514L348.179 310.502L346.121 311.066C346.087 311.075 346.055 311.091 346.028 311.113C346 311.135 345.978 311.162 345.961 311.193C345.944 311.224 345.934 311.257 345.93 311.292C345.926 311.327 345.93 311.362 345.94 311.396ZM343.258 312.143L343.47 312.905L345.782 312.262L345.5 311.249L343.445 311.813C343.41 311.822 343.378 311.837 343.349 311.858C343.321 311.88 343.297 311.907 343.28 311.938C343.263 311.969 343.252 312.003 343.248 312.038C343.244 312.074 343.248 312.109 343.258 312.143ZM340.579 312.891L340.788 313.652L343.101 313.009L342.819 311.994L340.757 312.558C340.723 312.567 340.691 312.583 340.664 312.605C340.636 312.627 340.613 312.655 340.597 312.686C340.58 312.717 340.57 312.751 340.567 312.786C340.564 312.822 340.568 312.857 340.579 312.891ZM329.407 316.001L329.621 316.762L331.931 316.119L331.649 315.104L329.59 315.668C329.556 315.677 329.523 315.693 329.495 315.715C329.467 315.737 329.444 315.764 329.427 315.795C329.41 315.826 329.399 315.861 329.396 315.896C329.392 315.931 329.396 315.967 329.407 316.001ZM326.728 316.748L326.939 317.507L329.249 316.864L328.967 315.852L326.908 316.416C326.874 316.425 326.842 316.44 326.814 316.462C326.786 316.484 326.763 316.512 326.746 316.543C326.729 316.574 326.719 316.608 326.715 316.644C326.712 316.679 326.716 316.715 326.728 316.748ZM295.254 325.51L295.468 326.271L297.777 325.628L297.495 324.616L295.437 325.18C295.403 325.189 295.371 325.205 295.343 325.227C295.315 325.248 295.292 325.275 295.275 325.306C295.258 325.337 295.247 325.371 295.244 325.406C295.24 325.441 295.243 325.476 295.254 325.51Z" fill="#50B19E"/>
<path d="M292.578 326.253L292.789 327.018L295.099 326.375L294.817 325.359L292.758 325.923C292.724 325.932 292.692 325.948 292.664 325.969C292.636 325.991 292.613 326.018 292.596 326.049C292.579 326.08 292.569 326.114 292.565 326.149C292.562 326.184 292.566 326.22 292.578 326.253Z" fill="#101013"/>
<path d="M332.168 315.23L332.382 315.992L340.326 313.781L340.044 312.766L332.351 314.909C332.318 314.918 332.287 314.933 332.259 314.954C332.232 314.975 332.209 315.001 332.192 315.031C332.175 315.061 332.164 315.094 332.16 315.128C332.156 315.162 332.159 315.197 332.168 315.23Z" fill="#50B19E"/>
<path d="M283.872 328.68L284.086 329.441L292.03 327.227L291.748 326.215L284.055 328.358C283.989 328.377 283.932 328.421 283.898 328.481C283.864 328.542 283.854 328.613 283.872 328.68Z" fill="#101013"/>
<path d="M298.19 324.692L298.402 325.454L325.99 317.772L325.708 316.76L298.371 324.374C298.305 324.393 298.249 324.437 298.216 324.496C298.182 324.556 298.173 324.626 298.19 324.692Z" fill="#50B19E"/>
<path d="M275.276 330.803L269.676 332.362C269.601 332.383 269.531 332.419 269.469 332.467C269.408 332.515 269.357 332.574 269.319 332.642C269.28 332.71 269.256 332.785 269.246 332.862C269.237 332.939 269.243 333.018 269.264 333.093L269.388 333.533L275.809 331.745L275.598 330.983C275.589 330.95 275.573 330.919 275.552 330.892C275.531 330.865 275.505 330.843 275.475 330.826C275.445 330.809 275.412 330.799 275.378 330.795C275.344 330.791 275.309 330.794 275.276 330.803Z" fill="url(#paint10_linear_2036_62837)"/>
<path d="M267.541 332.957L261.938 334.516C261.863 334.537 261.792 334.572 261.731 334.62C261.67 334.668 261.618 334.728 261.58 334.796C261.542 334.864 261.517 334.938 261.508 335.016C261.499 335.093 261.505 335.171 261.526 335.246L261.65 335.686L268.071 333.898L267.86 333.137C267.841 333.071 267.797 333.015 267.738 332.981C267.678 332.947 267.607 332.938 267.541 332.957Z" fill="url(#paint11_linear_2036_62837)"/>
<path d="M259.801 335.111L254.2 336.67C254.125 336.691 254.054 336.726 253.993 336.774C253.931 336.822 253.88 336.882 253.842 336.95C253.803 337.018 253.779 337.092 253.77 337.17C253.761 337.247 253.767 337.326 253.788 337.401L253.91 337.841L260.333 336.053L260.125 335.291C260.105 335.225 260.06 335.169 260 335.135C259.939 335.101 259.867 335.093 259.801 335.111Z" fill="url(#paint12_linear_2036_62837)"/>
<path d="M252.064 337.271L246.469 338.825C246.394 338.846 246.324 338.881 246.262 338.929C246.201 338.977 246.15 339.037 246.111 339.105C246.073 339.173 246.049 339.247 246.039 339.325C246.03 339.402 246.036 339.48 246.057 339.555L246.181 339.995L252.602 338.207L252.394 337.446C252.373 337.379 252.326 337.323 252.265 337.291C252.203 337.258 252.131 337.251 252.064 337.271Z" fill="url(#paint13_linear_2036_62837)"/>
<path d="M242.954 339.81L240.021 340.628C239.87 340.671 239.742 340.771 239.665 340.908C239.587 341.045 239.568 341.207 239.609 341.358L239.73 341.801L243.487 340.755L243.275 339.993C243.257 339.926 243.213 339.87 243.152 339.835C243.092 339.801 243.021 339.792 242.954 339.81Z" fill="url(#paint14_linear_2036_62837)"/>
<path d="M238.392 341.074L235.471 341.889C235.319 341.932 235.191 342.033 235.113 342.171C235.036 342.308 235.017 342.47 235.059 342.622L235.18 343.062L238.934 342.016L238.722 341.255C238.713 341.221 238.697 341.189 238.675 341.162C238.653 341.134 238.626 341.112 238.595 341.095C238.565 341.078 238.531 341.067 238.496 341.064C238.461 341.06 238.426 341.064 238.392 341.074Z" fill="url(#paint15_linear_2036_62837)"/>
<path d="M234.096 342.27L231.166 343.085C231.014 343.127 230.886 343.229 230.809 343.366C230.731 343.504 230.712 343.666 230.754 343.818L230.876 344.258L234.632 343.212L234.418 342.45C234.409 342.417 234.393 342.386 234.372 342.359C234.351 342.332 234.324 342.31 234.295 342.293C234.265 342.276 234.232 342.266 234.198 342.262C234.164 342.258 234.129 342.26 234.096 342.27Z" fill="url(#paint16_linear_2036_62837)"/>
<path d="M271.092 280.589C269.964 278.691 268.095 277.89 265.734 278.55L295.536 328.687C295.536 328.687 298.159 327.08 296.681 324.505C295.449 322.353 277.246 290.817 271.092 280.589Z" fill="#50B19E"/>
<path d="M265.447 278.633L196.507 297.828C196.282 297.892 196.074 298.005 195.9 298.161C195.725 298.316 195.589 298.509 195.5 298.725C195.411 298.941 195.373 299.175 195.388 299.408C195.403 299.641 195.472 299.868 195.587 300.07L222.234 346.662L294.708 326.482L267.918 279.645C267.677 279.226 267.304 278.898 266.856 278.715C266.409 278.532 265.913 278.503 265.447 278.633ZM223.108 348.772C223.12 348.822 223.143 348.869 223.174 348.911C223.205 348.952 223.244 348.987 223.288 349.014C223.333 349.04 223.382 349.057 223.434 349.064C223.485 349.071 223.537 349.067 223.587 349.054L294.725 329.246C294.823 329.219 294.915 329.172 294.996 329.109C295.076 329.046 295.144 328.968 295.194 328.879C295.244 328.79 295.276 328.692 295.289 328.59C295.301 328.489 295.293 328.386 295.266 328.287L294.764 326.48L222.234 346.674L223.108 348.772ZM122.671 366.12C125.505 366.12 128.088 365.136 130.35 363.582C130.482 368.309 130.104 373.037 129.222 377.682C126.204 382.544 117.834 391.5 118.398 391.438C120.739 391.249 122.939 390.629 125.116 389.873C123.688 392.824 121.974 395.626 119.997 398.24C115.939 403.657 110.153 407.989 107.953 414.596C107.936 414.66 107.904 414.719 107.86 414.768C107.816 414.817 107.761 414.855 107.699 414.878C107.697 414.969 107.669 415.057 107.618 415.132C107.567 415.208 107.497 415.267 107.414 415.304C107.331 415.34 107.239 415.352 107.149 415.339C107.06 415.326 106.976 415.287 106.907 415.228C95.9822 404.856 94.0308 389.098 92.4262 374.902C92.35 374.228 92.2739 373.565 92.2119 372.888C95.2377 375.914 98.4553 378.681 102.282 380.748C102.812 381.03 95.4408 369.242 91.834 363.811C91.9115 360.368 92.5458 356.961 93.7121 353.721C96.2698 346.871 100.652 340.467 104.908 334.565C105.08 334.322 105.277 334.088 105.449 333.846C106.582 336.902 108.166 339.771 110.147 342.359C110.5 342.819 109.374 333.738 108.683 329.59C109.752 328.265 110.818 326.939 111.929 325.659C113.387 323.942 115.184 321.031 117.801 321.429C120.339 321.787 126.122 332.182 126.853 335.154C127.171 336.423 127.456 337.723 127.713 339.023C127.837 339.587 127.941 340.151 128.04 340.715C128.957 345.952 129.608 351.232 129.989 356.535C129.808 356.817 129.628 357.099 129.425 357.381C127.293 360.255 122.152 366.118 122.671 366.12Z" fill="#50B19E"/>
<path d="M112.718 360.886C118.107 360.071 122.224 356.656 126.183 353.157C126.776 352.632 126.042 351.637 125.445 352.164C121.736 355.455 117.876 358.746 112.848 359.603C113.993 351.577 115.329 343.577 116.906 335.633C117.058 334.852 115.84 334.663 115.685 335.439C113.598 345.987 111.895 356.593 110.575 367.257C107.482 362.868 105.076 358.033 103.44 352.92C103.198 352.164 102.053 352.638 102.295 353.379C104.031 358.799 106.614 363.911 109.949 368.523C109.999 368.595 110.065 368.655 110.143 368.697C110.22 368.739 110.306 368.763 110.394 368.765C110.112 371.098 109.853 373.43 109.602 375.765C107.35 372.981 105.563 369.852 104.309 366.498C104.027 365.756 102.899 366.216 103.161 366.961C104.553 370.709 106.591 374.185 109.182 377.231C109.249 377.311 109.337 377.372 109.435 377.409C108.644 385.09 108.045 392.792 107.639 400.513C107.597 400.594 107.572 400.684 107.569 400.775C107.403 403.595 107.304 406.415 107.273 409.235C107.21 411.074 107.161 412.914 107.123 414.757C107.117 414.835 107.13 414.914 107.161 414.986C107.192 415.058 107.24 415.122 107.301 415.171C107.619 432.559 110.197 449.756 113.854 466.777C114.252 466.679 114.655 466.591 115.053 466.495C110.922 447.266 108.172 427.802 108.533 408.093C108.606 406.016 108.694 403.936 108.795 401.855C108.885 401.89 108.982 401.902 109.077 401.89C109.173 401.879 109.264 401.843 109.342 401.788C111.586 400.253 113.503 398.289 114.982 396.009C115.414 395.35 114.449 394.574 114.018 395.24C112.652 397.337 110.899 399.156 108.852 400.598C109.536 387.308 110.806 374.07 112.662 360.883C112.68 360.886 112.699 360.887 112.718 360.886Z" fill="#425A92"/>
<path d="M69.8688 396.616C67.551 397.489 65.0368 397.704 62.6045 397.236C63.8737 400.839 65.5783 404.273 67.6805 407.462C71.6567 410.124 81.3744 414.094 80.8781 414.23C78.8687 414.809 76.7993 415.156 74.7107 415.262C76.8022 417.026 79.0702 418.569 81.4787 419.867C86.504 422.602 92.6826 423.953 96.4727 428.197C96.5081 428.242 96.5537 428.278 96.6057 428.301C96.6577 428.325 96.7146 428.335 96.7716 428.333C96.8104 428.401 96.8668 428.458 96.9349 428.498C97.003 428.538 97.0805 428.559 97.1594 428.559C97.2382 428.559 97.3156 428.538 97.3838 428.498C97.4519 428.458 97.5083 428.401 97.5471 428.333C103.819 416.948 100.9 404.464 98.1337 393.263C98.0039 392.733 97.8742 392.208 97.7332 391.681C96.0412 394.949 94.1067 398.085 91.4587 400.897C91.0893 401.286 93.9262 390.003 95.4067 384.735C94.3301 382.159 92.7946 379.8 90.875 377.773C86.7098 373.467 81.1234 370.091 75.7936 367.057C75.5765 366.933 75.3396 366.82 75.1253 366.693C75.0417 369.405 74.5277 372.086 73.6025 374.637C73.4389 375.097 71.7554 367.906 71.1378 364.561C69.8462 363.915 68.5519 363.272 67.2377 362.674C65.4978 361.862 63.1234 360.266 61.014 361.417C58.961 362.522 57.066 372.231 57.3057 374.707C57.4044 375.765 57.5398 376.834 57.6977 377.894C57.7541 378.354 57.833 378.819 57.912 379.273C58.6522 383.501 59.6342 387.684 60.8533 391.799C61.0901 391.952 61.3214 392.104 61.5752 392.242C64.2373 393.728 70.3115 396.441 69.8688 396.616Z" fill="#50B19E"/>
<path d="M106.613 469.341C104.777 455.351 101.968 441.584 97.1881 428.412C97.2244 428.358 97.2461 428.296 97.251 428.231C97.2559 428.166 97.244 428.101 97.2163 428.042C96.6523 426.672 96.0751 425.306 95.4848 423.945C94.6388 421.839 93.7355 419.751 92.7748 417.679C92.7439 417.611 92.6964 417.552 92.6366 417.507C90.0516 411.842 87.3049 406.252 84.3966 400.736C84.4687 400.679 84.5258 400.606 84.563 400.522C85.8645 397.448 86.5863 394.16 86.6921 390.824C86.7118 390.173 85.6035 390.206 85.5866 390.855C85.4843 393.838 84.872 396.781 83.7762 399.558C82.8888 397.886 81.9864 396.22 81.069 394.558C81.1423 394.53 81.2083 394.485 81.262 394.428C81.3157 394.371 81.3558 394.303 81.3792 394.228C82.8598 389.749 83.5721 385.053 83.4857 380.336C83.4716 379.688 82.3577 379.719 82.3775 380.367C82.4628 384.814 81.8217 389.244 80.4796 393.483C76.2496 385.914 71.7197 378.506 66.89 371.259C66.5347 370.723 65.5505 371.259 65.9087 371.803C69.5596 377.264 73.032 382.826 76.3257 388.489C71.8137 389.499 67.564 388.297 63.4553 387.042C62.7954 386.842 62.4626 387.829 63.114 388.029C67.502 389.366 71.9914 390.567 76.8108 389.411C76.8277 389.411 76.8362 389.397 76.8531 389.391C82.2487 398.682 87.1743 408.211 91.6299 417.978C89.5162 417.586 87.4966 416.794 85.6797 415.646C85.1157 415.288 84.5235 416.187 85.0818 416.542C87.0596 417.789 89.2636 418.633 91.5678 419.027C91.6533 419.042 91.741 419.038 91.8248 419.016C91.9086 418.993 91.9865 418.953 92.0529 418.897C92.741 420.426 93.4187 421.959 94.0861 423.497C100.118 438.186 103.44 453.713 105.516 469.522C105.877 469.462 106.243 469.398 106.613 469.341Z" fill="#425A92"/>
<path d="M67.3217 381.664C63.9173 381.011 60.6616 379.739 57.7168 377.91C57.7732 378.37 57.8522 378.835 57.9311 379.289C60.742 380.895 63.7971 382.03 66.9749 382.648C67.6799 382.777 68.0013 381.796 67.3217 381.664Z" fill="#87AFDD"/>
<path d="M171.522 390.919C171.454 395.364 161.175 397.515 157.912 398.725C150.688 401.398 143.635 404.083 138.294 409.909C131.994 416.762 126.565 424.669 121.131 432.224C120.996 432.433 120.802 432.598 120.574 432.698C120.346 432.798 120.094 432.829 119.848 432.788C119.769 432.788 119.154 431.508 118.353 429.539C116.481 424.923 113.613 416.477 114.324 411.663C114.849 408.301 115.958 405.056 117.601 402.075C117.97 403.595 118.585 405.042 119.659 406.142C119.919 406.404 120.474 400.07 120.844 397.194C121.32 396.61 121.802 396.046 122.31 395.502C123.479 394.227 124.749 393.049 126.108 391.98C126.39 391.748 126.687 391.52 126.983 391.306C128.096 390.48 129.251 389.713 130.443 389.007C130.759 388.821 131.08 388.638 131.413 388.443C132.527 387.826 133.686 387.25 134.87 386.732C135.203 388.924 135.845 391.057 136.779 393.068C136.977 393.491 137.462 388.063 137.532 385.663C138.66 385.24 139.788 384.89 140.947 384.56C141.251 385.976 141.724 387.35 142.357 388.652C142.512 388.965 144.049 385.291 144.594 383.675C148.21 382.934 151.904 382.644 155.592 382.812C155.907 382.812 156.22 382.84 156.525 382.871C157.512 382.939 158.499 383.049 159.449 383.195C162.991 383.759 171.333 385.99 171.496 390.778C171.509 390.824 171.518 390.872 171.522 390.919Z" fill="#50B19E"/>
<path d="M131.976 402.6C123.234 411.218 120.532 427.052 119.968 431.547C119.079 433.396 118.474 435.367 118.172 437.396C117.134 444.5 117.439 451.998 117.608 459.155C117.664 461.51 117.768 463.864 117.89 466.205L119.105 465.979C119.029 464.496 118.956 463.01 118.908 461.527C118.688 455.117 118.693 448.69 118.99 442.283C119.142 438.972 119.449 435.645 120.732 432.574C120.884 432.48 121.017 432.357 121.121 432.213C126.556 424.658 131.984 416.751 138.281 409.898C143.625 404.086 150.689 401.387 157.9 398.714C161.165 397.504 171.436 395.353 171.509 390.908C157.821 392.516 142.026 392.679 131.976 402.6ZM131.598 398.37C130.957 395.099 130.894 391.742 131.412 388.449C131.079 388.635 130.757 388.819 130.442 389.013C130.01 392.196 130.105 395.427 130.724 398.579C130.828 399.143 131.694 398.934 131.598 398.37ZM128.259 400.158C127.482 397.273 127.053 394.304 126.981 391.317C126.685 391.531 126.395 391.76 126.107 391.991C126.218 394.82 126.643 397.628 127.373 400.364C127.523 400.905 128.406 400.722 128.259 400.158Z" fill="#425A92"/>
<path d="M142.868 459.519C142.876 464.588 141.678 469.587 139.373 474.102C137.069 478.618 133.724 482.52 129.614 485.488H91.9919C86.9216 481.813 83.0389 476.732 80.8233 470.875C78.6077 465.017 78.1563 458.639 79.5247 452.528C79.9392 450.634 80.5292 448.783 81.2872 446.998H140.327C141.088 448.782 141.68 450.634 142.098 452.528C142.611 454.823 142.87 457.167 142.868 459.519Z" fill="#50B19E" fill-opacity="0.3"/>
<path d="M142.868 459.519C142.876 464.588 141.678 469.587 139.374 474.102C137.069 478.618 133.724 482.52 129.614 485.488H91.9922C141.139 487.928 140.327 446.998 140.327 446.998C141.088 448.782 141.681 450.634 142.098 452.528C142.612 454.823 142.87 457.167 142.868 459.519Z" fill="#C0C9E7"/>
<path d="M206.523 242.714C198.047 242.714 190.571 240.429 184.095 235.857C177.714 231.286 172.714 224.857 169.095 216.571C165.476 208.286 163.666 198.667 163.666 187.714C163.666 176.667 165.428 167.048 168.952 158.857C172.571 150.667 177.571 144.286 183.952 139.714C190.428 135.143 197.904 132.857 206.381 132.857C215.047 132.857 222.571 135.143 228.952 139.714C235.428 144.286 240.428 150.714 243.952 159C247.571 167.19 249.381 176.762 249.381 187.714C249.381 198.667 247.571 208.286 243.952 216.571C240.428 224.762 235.428 231.19 228.952 235.857C222.571 240.429 215.095 242.714 206.523 242.714ZM206.666 222.714C211.047 222.714 214.762 221.333 217.809 218.571C220.857 215.81 223.19 211.81 224.809 206.571C226.428 201.333 227.238 195.048 227.238 187.714C227.238 180.381 226.428 174.143 224.809 169C223.19 163.762 220.809 159.762 217.666 157C214.619 154.238 210.857 152.857 206.381 152.857C202 152.857 198.285 154.238 195.238 157C192.19 159.762 189.857 163.762 188.238 169C186.619 174.143 185.809 180.381 185.809 187.714C185.809 194.952 186.619 201.19 188.238 206.429C189.857 211.667 192.19 215.714 195.238 218.571C198.381 221.333 202.19 222.714 206.666 222.714Z" fill="#425A92"/>
</g>
<defs>
<linearGradient id="paint0_linear_2036_62837" x1="36.1801" y1="284.544" x2="474.803" y2="284.544" gradientUnits="userSpaceOnUse">
<stop stop-color="white"/>
<stop offset="1" stop-color="#D4DBEA"/>
</linearGradient>
<linearGradient id="paint1_linear_2036_62837" x1="350.887" y1="139.419" x2="439.161" y2="139.419" gradientUnits="userSpaceOnUse">
<stop stop-color="white"/>
<stop offset="1" stop-color="#D4DBEA"/>
</linearGradient>
<linearGradient id="paint2_linear_2036_62837" x1="-31.5332" y1="281.394" x2="755.089" y2="281.394" gradientUnits="userSpaceOnUse">
<stop stop-color="white"/>
<stop offset="1" stop-color="#D4DBEA"/>
</linearGradient>
<linearGradient id="paint3_linear_2036_62837" x1="281.71" y1="417.098" x2="355.699" y2="417.098" gradientUnits="userSpaceOnUse">
<stop stop-color="#6669B0"/>
<stop offset="1" stop-color="#33308E"/>
</linearGradient>
<linearGradient id="paint4_linear_2036_62837" x1="333.438" y1="435.919" x2="410.889" y2="435.919" gradientUnits="userSpaceOnUse">
<stop stop-color="#50B19E" stop-opacity="0.32"/>
<stop offset="1" stop-color="#33308E"/>
</linearGradient>
<linearGradient id="paint5_linear_2036_62837" x1="411.029" y1="379.767" x2="434.717" y2="379.767" gradientUnits="userSpaceOnUse">
<stop stop-color="#6669B0"/>
<stop offset="1" stop-color="#33308E"/>
</linearGradient>
<linearGradient id="paint6_linear_2036_62837" x1="377.049" y1="331.939" x2="463.826" y2="331.939" gradientUnits="userSpaceOnUse">
<stop stop-color="#6669B0"/>
<stop offset="1" stop-color="#33308E"/>
</linearGradient>
<linearGradient id="paint7_linear_2036_62837" x1="314.206" y1="377.324" x2="380.71" y2="377.324" gradientUnits="userSpaceOnUse">
<stop stop-color="#6669B0"/>
<stop offset="1" stop-color="#33308E"/>
</linearGradient>
<linearGradient id="paint8_linear_2036_62837" x1="393.848" y1="249.403" x2="464.053" y2="275.331" gradientUnits="userSpaceOnUse">
<stop stop-color="#FFD10A"/>
<stop offset="1" stop-color="#F47521"/>
</linearGradient>
<linearGradient id="paint9_linear_2036_62837" x1="116.146" y1="351.691" x2="373.894" y2="351.691" gradientUnits="userSpaceOnUse">
<stop stop-color="#6669B0"/>
<stop offset="1" stop-color="#33308E"/>
</linearGradient>
<linearGradient id="paint10_linear_2036_62837" x1="269.251" y1="333.063" x2="275.676" y2="331.274" gradientUnits="userSpaceOnUse">
<stop stop-color="#9FCBED"/>
<stop offset="1" stop-color="#D6E8F7"/>
</linearGradient>
<linearGradient id="paint11_linear_2036_62837" x1="261.514" y1="335.217" x2="267.939" y2="333.428" gradientUnits="userSpaceOnUse">
<stop stop-color="#9FCBED"/>
<stop offset="1" stop-color="#D6E8F7"/>
</linearGradient>
<linearGradient id="paint12_linear_2036_62837" x1="253.774" y1="337.369" x2="260.199" y2="335.58" gradientUnits="userSpaceOnUse">
<stop stop-color="#9FCBED"/>
<stop offset="1" stop-color="#D6E8F7"/>
</linearGradient>
<linearGradient id="paint13_linear_2036_62837" x1="246.038" y1="339.524" x2="252.463" y2="337.735" gradientUnits="userSpaceOnUse">
<stop stop-color="#9FCBED"/>
<stop offset="1" stop-color="#D6E8F7"/>
</linearGradient>
<linearGradient id="paint14_linear_2036_62837" x1="239.596" y1="341.318" x2="243.35" y2="340.273" gradientUnits="userSpaceOnUse">
<stop stop-color="#9FCBED"/>
<stop offset="1" stop-color="#D6E8F7"/>
</linearGradient>
<linearGradient id="paint15_linear_2036_62837" x1="235.036" y1="342.589" x2="238.79" y2="341.543" gradientUnits="userSpaceOnUse">
<stop stop-color="#9FCBED"/>
<stop offset="1" stop-color="#D6E8F7"/>
</linearGradient>
<linearGradient id="paint16_linear_2036_62837" x1="230.739" y1="343.785" x2="234.494" y2="342.739" gradientUnits="userSpaceOnUse">
<stop stop-color="#9FCBED"/>
<stop offset="1" stop-color="#D6E8F7"/>
</linearGradient>
<clipPath id="clip0_2036_62837">
<rect width="533" height="564" fill="white"/>
</clipPath>
</defs>
</svg>
